<svg viewBox="0 0 48.00 48.00" xmlns="http://www.w3.org/2000/svg" fill="#ffffff" transform="rotate(45)matrix(1, 0, 0, -1, 0, 0)" stroke="#ffffff" stroke-width="1.296"><g id="SVGRepo_bgCarrier" stroke-width="0"></g><g id="SVGRepo_tracerCarrier" stroke-linecap="round" stroke-linejoin="round" stroke="#fcfcfc" stroke-width="0.384"><defs><style>.a{fill:none;stroke:#f0f6ff;stroke-linecap:round;stroke-linejoin:round;}</style></defs><circle class="a" cx="24" cy="24" r="21.5"></circle><path class="a" d="M28.083,17.28a7.8633,7.8633,0,0,1,0,13.44"></path><path class="a" d="M19.917,30.72a7.8633,7.8633,0,0,1,0-13.44"></path><path class="a" d="M26.067,10.43H21.933a2.0172,2.0172,0,0,0-2.016,2.016v6.36c2.358,1.281,2.736,2.562,0,3.843V35.574a2.0169,2.0169,0,0,0,2.016,2.015h4.134a2.0169,2.0169,0,0,0,2.016-2.015V29.213c-2.358-1.281-2.736-2.562,0-3.842V12.446A2.0172,2.0172,0,0,0,26.067,10.43Z"></path></g><g id="SVGRepo_iconCarrier"><defs><style>.a{fill:none;stroke:#f0f6ff;stroke-linecap:round;stroke-linejoin:round;}</style></defs><circle class="a" cx="24" cy="24" r="21.5"></circle><path class="a" d="M28.083,17.28a7.8633,7.8633,0,0,1,0,13.44"></path><path class="a" d="M19.917,30.72a7.8633,7.8633,0,0,1,0-13.44"></path><path class="a" d="M26.067,10.43H21.933a2.0172,2.0172,0,0,0-2.016,2.016v6.36c2.358,1.281,2.736,2.562,0,3.843V35.574a2.0169,2.0169,0,0,0,2.016,2.015h4.134a2.0169,2.0169,0,0,0,2.016-2.015V29.213c-2.358-1.281-2.736-2.562,0-3.842V12.446A2.0172,2.0172,0,0,0,26.067,10.43Z"></path></g></svg>
